<svg width="119" height="35" viewBox="0 0 119 35" fill="none" xmlns="http://www.w3.org/2000/svg">
<path d="M45.3143 18.5594C46.9543 18.5594 48.2303 18.519 49.4989 18.5741C50.2086 18.6072 50.0248 19.247 50.0248 19.6773C50.0395 23.0456 50.0321 26.4139 50.0321 29.7823C50.0321 30.2897 50.0469 30.8009 50.0358 31.3083C50.0027 32.6358 50.2454 33.8088 51.6906 34.4192C49.6938 34.4192 47.6971 34.4192 45.4761 34.4192C46.8992 33.2278 46.7557 31.7202 46.7521 30.2493C46.7484 27.8223 46.7557 25.3917 46.7484 22.9647C46.7447 21.4571 46.9322 19.8979 45.3143 18.5594Z" fill="black"/>
<path d="M45.693 16.809C46.6675 15.6912 46.7558 14.4961 46.7521 13.2605C46.7447 10.4769 46.7447 7.69322 46.7521 4.91324C46.7558 3.50855 46.8109 2.09649 45.3842 0.864624C46.9249 0.864624 48.1605 0.868301 49.396 0.864624C49.9402 0.864624 50.0285 1.21396 50.0285 1.64787C50.0285 6.42826 50.0285 11.2123 50.0285 15.9927C50.0285 16.4891 49.8814 16.8237 49.2967 16.8164C48.0943 16.798 46.8918 16.809 45.693 16.809Z" fill="black"/>
<path d="M71.3931 6.3253C70.4003 7.4064 69.8229 8.51324 69.6722 9.83336C69.5766 10.6607 69.8377 10.988 70.6834 10.9402C71.5439 10.8924 72.4117 10.9145 73.2722 10.9292C73.8863 10.9402 74.14 10.6534 74.0517 10.0577C73.8826 8.93245 73.7429 7.79251 72.9008 6.91365C72.739 6.7445 72.4853 6.57903 72.6434 6.33266C72.7868 6.10467 73.0663 6.21498 73.2979 6.24808C75.3866 6.55696 76.8759 8.3919 76.8648 10.5835C76.8612 11.2969 76.4493 11.319 75.9455 11.3153C74.2577 11.3006 72.5698 11.2675 70.882 11.2712C69.6391 11.2712 69.4442 11.58 69.8818 12.7641C70.7055 14.9925 73.2501 15.8199 75.3314 14.5659C75.5888 14.4115 75.8315 13.8305 76.1698 14.2166C76.4714 14.5623 76.0338 14.9263 75.8021 15.2168C73.4597 18.1917 68.4955 17.2981 67.0356 13.6503C65.7596 10.4585 67.5615 6.88056 70.7459 6.29221C70.882 6.26647 71.0328 6.30324 71.3931 6.3253Z" fill="black"/>
<path d="M64.2593 7.74101C64.2593 9.81496 64.2482 11.8889 64.2666 13.9592C64.274 14.7351 64.2482 15.522 64.8182 16.1802C65.1602 16.5774 65.0058 16.8164 64.4873 16.8201C63.3915 16.8201 62.2956 16.8201 61.1998 16.8164C60.7181 16.8164 60.4644 16.5994 60.8431 16.1986C61.3653 15.647 61.3653 14.9925 61.369 14.3343C61.3837 10.5026 61.38 6.66726 61.3763 2.8356C61.3763 2.32079 61.3653 1.79863 60.8873 1.46033C60.1408 0.930809 60.4497 0.691789 61.1263 0.548377C61.4315 0.482187 61.7441 0.43806 62.0493 0.375548C64.2556 -0.073073 64.2556 -0.0730763 64.2556 2.22518C64.2593 4.06379 64.2556 5.9024 64.2593 7.74101Z" fill="black"/>
<path d="M95.9937 6.58639C93.7432 6.82541 93.7432 6.82541 93.7432 8.81479C93.7432 10.1055 93.7395 11.3999 93.7469 12.6906C93.7579 15.3051 94.4603 15.8052 96.8247 14.8895C96.5379 16.1251 95.1516 16.9966 93.5336 16.9525C92.0333 16.912 91.0956 16.2097 91.0037 14.7351C90.8676 12.5508 90.9302 10.3555 90.8787 8.16392C90.8676 7.65646 91.114 7.03133 90.419 6.72245C90.3344 6.68568 90.1469 6.6011 90.3161 6.48711C91.3052 5.83992 90.7537 4.84339 90.8934 4.00498C91.1214 2.64441 92.2981 3.13716 93.0519 2.9533C93.9565 2.72899 93.6697 3.58578 93.7469 4.06382C93.7543 4.10059 93.7469 4.14104 93.7469 4.18149C93.7616 6.28486 93.7616 6.28486 95.9937 6.58639Z" fill="black"/>
<path d="M84.3112 6.42457C82.2004 7.51303 81.715 9.20455 81.7445 11.1461C81.7886 14.2975 84.4583 15.9008 87.3081 14.5034C87.5729 14.3747 87.8523 13.8231 88.1759 14.2681C88.4002 14.577 88.0399 14.9263 87.8266 15.1947C86.5285 16.809 84.7745 17.2576 82.8587 16.8421C80.7369 16.3825 79.5087 14.8601 79.0123 12.8193C78.2327 9.62743 80.439 6.57901 83.6971 6.226C83.8 6.21497 83.9067 6.28852 84.3112 6.42457Z" fill="black"/>
<path d="M92.4415 34.5038C93.6697 33.2094 93.4306 31.9187 93.4454 30.6869C93.4564 29.6315 93.4637 28.5725 93.438 27.5171C93.4012 25.8697 92.7724 25.377 91.1361 25.6638C90.9779 25.6932 90.8309 25.7042 90.7169 25.5645C91.3052 24.3363 92.6842 23.6487 94.0815 23.8877C95.4384 24.1193 96.1702 24.8879 96.24 26.4029C96.3246 28.2011 96.2878 30.0029 96.2952 31.8047C96.2989 32.3968 96.2547 33.0329 96.6225 33.5073C97.3138 34.4008 97.0049 34.57 96.0451 34.5222C94.964 34.4634 93.8756 34.5038 92.4415 34.5038Z" fill="black"/>
<path d="M84.3589 25.6343C85.1422 24.237 86.4403 23.6156 87.8155 23.9097C89.1688 24.1966 89.8233 24.9725 89.9005 26.6235C89.9814 28.3003 89.9483 29.9845 89.9557 31.665C89.9594 32.2938 89.9005 32.9998 90.2682 33.4889C91.1581 34.6693 90.3197 34.5112 89.5733 34.5075C88.5252 34.5001 87.4772 34.5038 86.363 34.5038C87.6133 31.9886 86.9955 29.4329 87.0102 26.9434C87.0213 25.7263 86.3116 25.4395 84.3589 25.6343Z" fill="black"/>
<path d="M39.1035 17.2908C39.1035 11.9956 39.1035 6.70405 39.1035 1.40886C39.1035 1.13307 39.1072 0.860953 39.1145 0.585162C39.1219 0.290985 39.1881 0.015192 39.5447 0.000483094C39.9787 -0.0142258 40.0338 0.309369 40.0448 0.640318C40.0559 0.87566 40.0522 1.111 40.0522 1.34634C40.0522 11.9735 40.0522 22.6007 40.0522 33.2278C40.0522 33.3859 40.0596 33.5441 40.0485 33.6985C40.0154 34.0699 40.1331 34.5957 39.5447 34.5663C38.9674 34.5369 39.1108 34 39.1108 33.6433C39.0998 28.1937 39.1035 22.7404 39.1035 17.2908Z" fill="black"/>
<path d="M101.749 10.9218C101.749 12.0985 101.745 13.2752 101.752 14.4519C101.756 14.9226 101.715 15.4632 102.021 15.8162C103.072 17.037 102.028 16.7943 101.355 16.8164C100.962 16.8311 100.572 16.8238 100.178 16.8164C99.5532 16.8054 98.7479 17.026 98.3398 16.7208C97.6926 16.2391 98.7369 15.864 98.7663 15.283C98.8766 13.0877 98.8509 10.8961 98.781 8.70078C98.7737 8.51324 98.6597 8.32938 98.5972 8.14552C98.4538 7.72999 97.5712 7.63439 97.9573 7.0828C98.1633 6.78863 98.8031 6.78495 99.2591 6.68199C102.245 6.00538 101.675 5.99067 101.734 8.56472C101.752 9.34797 101.738 10.1349 101.738 10.9181C101.741 10.9218 101.745 10.9218 101.749 10.9218Z" fill="black"/>
<path d="M74.9821 34.4229C73.2648 34.4229 71.8417 34.4229 70.209 34.4229C71.2681 33.3087 71.1026 32.0732 71.1136 30.8744C71.121 29.6204 71.1136 28.3665 71.1136 27.1126C71.1136 26.6787 71.0952 26.2448 70.8673 25.8587C70.187 24.715 70.1833 24.715 71.4814 24.4209C74.026 23.8399 74.026 23.8399 74.0297 26.4617C74.0333 28.1091 74.026 29.7565 74.0333 31.4002C74.037 32.4151 73.9524 33.4521 74.9821 34.4229Z" fill="black"/>
<path d="M79.9279 34.3751C80.9024 33.3381 80.7553 32.143 80.759 30.981C80.7663 29.7271 80.7774 28.4695 80.7479 27.2156C80.7369 26.7927 80.7001 26.3294 80.5236 25.958C79.9206 24.7114 79.8948 24.7224 81.2627 24.3878C83.6419 23.8031 83.6419 23.8031 83.6419 26.2852C83.6419 28.1275 83.6419 29.9698 83.6493 31.8158C83.6529 32.3637 83.5537 33.0035 83.8846 33.4227C84.7782 34.5516 84.1163 34.5663 83.208 34.5112C82.1673 34.4413 81.1193 34.6252 79.9279 34.3751Z" fill="black"/>
<path d="M63.7518 23.9686C65.7449 24.02 67.0246 24.7923 67.8777 26.1859C69.0801 28.1496 69.0911 30.2272 67.9659 32.2129C67.1606 33.6396 65.892 34.4928 63.8916 34.5369C65.7155 32.9557 65.322 31.0068 65.3146 29.1976C65.3073 27.4252 65.7339 25.4836 63.7518 23.9686Z" fill="black"/>
<path d="M113.968 16.9194C116.13 14.7866 116.152 8.50221 114.222 6.4062C115.384 6.15247 116.924 6.8254 117.84 8.1161C119.234 10.0761 119.366 12.1941 118.267 14.3159C117.439 15.9118 116.053 16.7502 113.968 16.9194Z" fill="black"/>
<path d="M112.747 6.28851C110.861 8.79638 110.912 14.6689 112.765 16.7428C110.537 17.0664 108.386 14.941 108.081 12.1169C107.746 9.02804 109.717 6.49811 112.747 6.28851Z" fill="black"/>
<path d="M62.7149 34.5553C60.8579 34.4965 59.6738 33.7757 58.8428 32.5255C57.5631 30.5986 57.5227 28.521 58.5486 26.4948C59.3355 24.943 60.663 24.0752 62.7811 23.9576C60.8984 25.513 61.255 27.4288 61.255 29.2086C61.255 31.0031 60.8836 32.9263 62.7149 34.5553Z" fill="black"/>
<path d="M51.6575 16.809C51.9884 16.1802 52.415 16.2097 52.7827 16.1324C54.9486 15.6875 56.7762 14.7792 57.6587 12.5766C57.7322 12.3964 57.7764 12.1684 58.0227 12.1941C58.3574 12.2309 58.3022 12.5141 58.3022 12.7347C58.3059 13.8268 58.3059 14.9226 58.2948 16.0148C58.2912 16.4487 58.1294 16.798 57.6256 16.8017C55.684 16.8127 53.7461 16.809 51.6575 16.809Z" fill="black"/>
<path d="M51.8193 18.552C53.7535 18.552 55.6877 18.5484 57.6256 18.5557C57.9382 18.5557 58.1662 18.7469 58.1698 19.0595C58.1882 20.2068 58.1772 21.3578 58.0301 22.597C56.824 19.7986 54.2867 19.3573 51.7604 18.9014C51.7825 18.7874 51.8009 18.6697 51.8193 18.552Z" fill="black"/>
<path d="M74.6511 25.7594C75.2211 24.7702 75.9014 24.2039 76.7986 23.9612C77.7253 23.7112 78.5453 23.9355 78.9388 24.8695C79.2991 25.7226 79.0785 26.4912 78.218 26.9582C77.2987 27.4546 76.5118 27.1788 76.019 26.333C75.6991 25.7778 75.3388 25.5645 74.6511 25.7594Z" fill="black"/>
<path d="M102.366 8.0499C102.918 6.9688 103.716 6.42825 104.676 6.20026C105.554 5.99434 106.338 6.3069 106.691 7.19678C107.018 8.02048 106.79 8.78534 105.992 9.2119C105.121 9.6789 104.245 9.54652 103.767 8.63825C103.455 8.05357 103.061 7.9212 102.366 8.0499Z" fill="black"/>
<path d="M51.8082 0.871971C53.691 0.871971 55.57 0.864614 57.4528 0.875646C57.8426 0.879323 57.9823 1.16615 57.9823 1.51181C57.9896 2.59659 57.986 3.68136 57.8389 4.91691C56.7173 2.13326 54.1911 1.71038 51.7163 1.19557C51.7494 1.08893 51.7788 0.982287 51.8082 0.871971Z" fill="black"/>
<path d="M85.2452 6.17453C86.3446 6.30691 87.0764 6.55328 87.6648 7.08648C88.2899 7.65277 88.4664 8.35512 87.9553 9.07954C87.4552 9.78924 86.7344 9.94736 85.9916 9.52448C85.2231 9.09056 85.0282 8.30732 85.4621 7.60497C85.7747 7.09751 85.7563 6.72244 85.2452 6.17453Z" fill="black"/>
<path d="M55.0883 24.2775C55.0883 25.752 55.0883 27.2266 55.0883 28.7012C54.2315 27.6679 53.2718 26.9582 51.9737 26.7596C51.8597 26.7412 51.7237 26.5647 51.6869 26.436C51.6317 26.2448 51.8266 26.1749 51.97 26.1492C53.2166 25.9212 54.2536 25.3806 54.8162 24.1046C54.9045 24.1598 54.9964 24.2186 55.0883 24.2775Z" fill="black"/>
<path d="M51.5986 8.7118C52.904 8.20802 54.0955 7.79984 54.7831 6.4834C54.7831 7.98003 54.7831 9.48033 54.7831 10.977C54.1322 9.67155 52.8195 9.27809 51.5986 8.7118Z" fill="black"/>
<path d="M0.705948 34.0147C0.466929 33.9743 0.150689 34.0699 0.0403726 33.739C-0.103039 33.3014 0.158043 33.0587 0.470606 32.7976C3.51534 30.2493 6.54537 27.6863 9.57907 25.1232C10.4175 24.4172 11.2449 23.6965 12.0943 23.0015C12.565 22.619 12.5061 22.3469 11.9987 22.0822C11.0279 21.5784 10.0608 21.0636 9.09368 20.5488C7.78092 19.8464 7.76988 19.4419 9.06059 18.644C11.4397 17.1731 13.8152 15.6985 16.2017 14.246C16.9262 13.8048 17.2019 13.4922 16.1797 13.062C15.3486 12.7126 14.5507 12.264 13.7821 11.7896C13.4732 11.6021 12.9401 11.6205 12.9511 11.0101C12.9621 10.3702 13.4953 10.3371 13.8594 10.1533C16.6908 8.72652 19.537 7.3255 22.3795 5.91713C25.7294 4.2587 29.083 2.60395 32.433 0.945528C32.8669 0.732249 33.3817 0.342464 33.7421 0.883015C34.1135 1.43828 33.6318 1.84645 33.2162 2.20682C30.0943 4.90222 26.9944 7.616 23.8504 10.2857C23.0928 10.9292 23.0671 11.2748 24.0305 11.6499C24.6593 11.8963 25.2477 12.253 25.8397 12.5839C26.9024 13.1723 26.9355 13.6135 25.9206 14.2681C23.4422 15.8603 20.949 17.4268 18.4596 18.997C17.2093 19.7876 17.2056 19.7839 18.4926 20.4605C19.1619 20.8135 19.8275 21.1666 20.4967 21.5122C20.8976 21.7181 21.3829 21.8652 21.405 22.4131C21.4307 22.9868 20.9233 23.1339 20.5372 23.3471C15.937 25.8771 11.3331 28.3996 6.73291 30.9259C5.07816 31.8342 3.42341 32.7461 1.76131 33.6433C1.43404 33.8235 1.13618 34.1104 0.705948 34.0147Z" fill="#060504"/>
<path d="M23.5856 24.5533C23.5672 24.8585 23.4164 25.0828 23.1848 25.2152C22.2397 25.7484 21.2873 26.2632 20.3349 26.778C19.9415 26.9913 19.5811 26.9067 19.3789 26.5169C19.1766 26.1198 19.3605 25.7704 19.7208 25.5645C20.6291 25.0423 21.5411 24.5312 22.4714 24.0495C23.0267 23.7627 23.3944 24.0127 23.5856 24.5533Z" fill="#2C2C2C"/>
<path d="M12.7452 14.2865C12.6679 14.4078 12.6165 14.5622 12.5098 14.6505C11.5464 15.4374 10.4726 16.0552 9.36211 16.5994C9.07161 16.7428 8.75905 16.5737 8.60461 16.2685C8.47591 16.0147 8.49061 15.7316 8.73331 15.5514C9.72616 14.8049 10.7595 14.1099 11.8884 13.6025C12.348 13.3929 12.6128 13.8194 12.7452 14.2865Z" fill="#1E1E1E"/>
<path d="M8.19274 17.0959C8.14861 17.4231 7.92062 17.6732 7.54187 17.6548C7.1006 17.6327 6.87262 17.3312 6.9241 16.8899C6.9719 16.5002 7.27711 16.2832 7.6338 16.3237C7.98681 16.3678 8.22215 16.6362 8.19274 17.0959Z" fill="#282828"/>
<path d="M25.2109 23.7222C25.1558 24.0863 24.9572 24.3326 24.5637 24.3289C24.1556 24.3253 23.9791 24.0605 23.968 23.6818C23.9533 23.2552 24.2254 23.075 24.6005 23.0824C24.9719 23.0897 25.2183 23.2956 25.2109 23.7222Z" fill="#181818"/>
<path d="M28.0755 4.88383C26.0457 6.63786 24.0195 8.39189 21.9897 10.1459C20.8093 11.1645 20.8424 11.4771 22.2324 12.2199C22.7325 12.4883 23.2289 12.7641 23.7474 12.9958C24.5049 13.3377 24.4497 13.6356 23.7878 14.0511C21.2947 15.625 18.8126 17.2209 16.3304 18.8131C14.8816 19.7435 14.9 20.0744 16.4591 20.9055C17.1946 21.2989 17.9411 21.6666 18.6765 22.0564C19.1067 22.2844 19.2796 22.5308 18.7133 22.8397C14.9809 24.8842 11.2522 26.9361 7.52351 28.9843C7.46835 28.9071 7.41319 28.8335 7.35803 28.7563C8.59725 27.701 9.83648 26.6419 11.0757 25.5866C12.0538 24.7518 13.0357 23.9208 14.0138 23.0861C14.7529 22.4572 14.6169 21.9571 13.7968 21.5343C12.8886 21.0673 12.0024 20.5525 11.0831 20.1112C10.3403 19.7545 10.1086 19.5192 11.0022 18.9896C13.4107 17.5629 15.7715 16.0589 18.1507 14.588C19.4671 13.7753 19.4598 13.3083 18.1102 12.5876C17.4115 12.2125 16.7055 11.8485 15.9995 11.4881C15.4589 11.2123 15.2604 10.9439 15.9554 10.5982C19.9415 8.61988 23.9276 6.63786 27.91 4.65952C27.9688 4.73674 28.0203 4.81028 28.0755 4.88383Z" fill="#F5A03A"/>
</svg>
